# xmcd CD database file
#
# Track frame offsets:
#	150
#	32497
#	67626
#	107213
#	145502
#	185275
#	221295
#
# Disc length: 3653 seconds
#
# Revision: 0
# Processed by: cddbd v1.5.2PL0 Copyright (c) Steve Scherf et al.
# Submitted via: CDex 1.75
#
DISCID=510e4307
DTITLE=David Arkenstone - Pure Sleep
DYEAR=2019
DGENRE=New Age
TTITLE0=Be Still
TTITLE1=The Here and Now
TTITLE2=Mindful Breathing
TTITLE3=Relax and Release
TTITLE4=Light as a Feather
TTITLE5=Drifting Away
TTITLE6=Blissful Dreams
EXTD=YEAR: 2019
EXTT0=
EXTT1=
EXTT2=
EXTT3=
EXTT4=
EXTT5=
EXTT6=
PLAYORDER=
